<svg width="16" height="16" viewBox="0 0 16 16" fill="none" xmlns="http://www.w3.org/2000/svg">
<path d="M13.7143 6.04914V4.004C13.7143 4.00171 13.7143 3.99886 13.7143 3.99657V0.571429C13.7143 0.255429 13.4589 0 13.1429 0H9.14286C8.90343 0 8.68971 0.149143 8.60686 0.373143C8.52343 0.597714 8.58914 0.849714 8.77086 1.00457L12.5714 4.26286V6.04914L7.42857 11.192L4.97543 8.73886C4.752 8.51543 4.39086 8.51543 4.16743 8.73886L0.167429 12.7389C0.06 12.8457 0 12.9909 0 13.1429V15.4286C0 15.7446 0.255429 16 0.571429 16H15.4286C15.7446 16 16 15.7446 16 15.4286V8.57143C16 8.41943 15.94 8.27429 15.8326 8.16743L13.7143 6.04914ZM10.6874 1.14286H12.5714V2.75771L10.6874 1.14286ZM14.8571 14.8571H1.14286V13.3794L4.57143 9.95086L7.02457 12.404C7.248 12.6274 7.60914 12.6274 7.83257 12.404L13.1429 7.09371L14.8571 8.808V14.8571Z" fill="white"/>
</svg>
