<svg width="18" height="17" viewBox="0 0 18 17" fill="none" xmlns="http://www.w3.org/2000/svg">
<path d="M9.0041 4.23306C6.44874 4.23306 4.38758 6.13677 4.38758 8.49692C4.38758 10.8571 6.44874 12.7608 9.0041 12.7608C11.5595 12.7608 13.6206 10.8571 13.6206 8.49692C13.6206 6.13677 11.5595 4.23306 9.0041 4.23306ZM9.0041 11.269C7.35276 11.269 6.00276 10.0258 6.00276 8.49692C6.00276 6.96802 7.34874 5.72485 9.0041 5.72485C10.6595 5.72485 12.0054 6.96802 12.0054 8.49692C12.0054 10.0258 10.6554 11.269 9.0041 11.269ZM14.8862 4.05864C14.8862 4.61157 14.4041 5.05317 13.8095 5.05317C13.2108 5.05317 12.7327 4.60786 12.7327 4.05864C12.7327 3.50942 13.2148 3.06411 13.8095 3.06411C14.4041 3.06411 14.8862 3.50942 14.8862 4.05864ZM17.9438 5.06802C17.8755 3.73579 17.5461 2.55571 16.4894 1.58345C15.4367 0.611182 14.159 0.306885 12.7166 0.240088C11.23 0.162158 6.77419 0.162158 5.28758 0.240088C3.84919 0.303174 2.57151 0.607471 1.51482 1.57974C0.45812 2.552 0.132673 3.73208 0.0603516 5.06431C-0.0240234 6.43735 -0.0240234 10.5528 0.0603516 11.9258C0.128655 13.2581 0.45812 14.4381 1.51482 15.4104C2.57151 16.3827 3.84517 16.687 5.28758 16.7538C6.77419 16.8317 11.23 16.8317 12.7166 16.7538C14.159 16.6907 15.4367 16.3864 16.4894 15.4104C17.542 14.4381 17.8715 13.2581 17.9438 11.9258C18.0282 10.5528 18.0282 6.44106 17.9438 5.06802ZM16.0233 13.3991C15.7099 14.1264 15.1032 14.6868 14.3117 14.9799C13.1264 15.4141 10.3139 15.3139 9.0041 15.3139C7.69428 15.3139 4.87776 15.4104 3.69651 14.9799C2.90901 14.6905 2.30232 14.1301 1.98491 13.3991C1.51482 12.3043 1.6233 9.70669 1.6233 8.49692C1.6233 7.28716 1.51883 4.68579 1.98491 3.59478C2.2983 2.86743 2.90499 2.30708 3.69651 2.01392C4.88178 1.57974 7.69428 1.67993 9.0041 1.67993C10.3139 1.67993 13.1304 1.58345 14.3117 2.01392C15.0992 2.30337 15.7059 2.86372 16.0233 3.59478C16.4934 4.6895 16.3849 7.28716 16.3849 8.49692C16.3849 9.70669 16.4934 12.3081 16.0233 13.3991Z" fill="white"/>
</svg>
