<svg width="16" height="12" viewBox="0 0 16 12" fill="none" xmlns="http://www.w3.org/2000/svg">
<path d="M15.9588 3.27559C15.9889 3.20875 16.0029 3.13498 15.9995 3.06099C15.9968 3.00332 15.9768 2.8037 15.8231 2.65572C15.7215 2.55781 15.5876 2.50841 15.4481 2.51757C15.0985 2.54082 14.8417 2.47219 14.7231 2.32846C14.5904 2.16796 14.5979 1.87535 14.6327 1.63863L15.0132 0.792316C15.1064 0.61371 15.0997 0.362455 14.9202 0.170884C14.7833 0.0249146 14.6119 -0.0126397 14.4738 0.00345491H5.07538C4.28823 0.00345491 3.45916 0.687924 3.1073 1.35943L0.191052 7.27913C0.190843 7.2798 0.190634 7.28047 0.190426 7.28092C0.0698715 7.5087 0 7.77069 0 8.05055V10.4352C0 11.2979 0.655123 12 1.46 12H11.6452C11.6788 12 11.7063 11.996 11.7363 11.9937C11.7543 11.9962 11.7724 12 11.7903 12C11.9098 12 12.0248 11.9439 12.1044 11.8455C12.1374 11.8093 12.1597 11.7684 12.1758 11.7262L15.9588 3.27559ZM3.84001 1.78683C4.08383 1.3212 4.67263 0.897378 5.07538 0.897378H14.0402L11.5282 6.4858H1.52507L3.84001 1.78683ZM9.42263 11.1059H1.46C1.11502 11.1059 0.834286 10.805 0.834286 10.4352V8.05055C0.834286 7.68082 1.11502 7.37994 1.46 7.37994H9.42284C8.9959 7.86748 8.73393 8.52289 8.73393 9.2429C8.73393 9.96291 8.99569 10.6183 9.42263 11.1059ZM9.56822 9.2429C9.56822 8.23363 10.3343 7.41258 11.276 7.41258C11.7618 7.41258 12.1238 7.40945 12.1931 7.06699L14.0732 2.88484C14.0821 2.89647 14.0894 2.90921 14.0988 2.92061C14.3105 3.17678 14.6063 3.3346 14.9817 3.39138L11.5411 11.0766C11.4575 11.0739 11.3701 11.073 11.276 11.073C10.3341 11.073 9.56822 10.2519 9.56822 9.2429Z" fill="white"/>
</svg>
