<svg width="16" height="12" viewBox="0 0 16 12" fill="none" xmlns="http://www.w3.org/2000/svg">
<path d="M0.329548 0C0.150791 0.0168475 -0.000771265 0.184088 2.95316e-06 0.363636V11.6364C2.19713e-05 11.8268 0.173245 12 0.363639 12H15.6364C15.8268 12 16 11.8268 16 11.6364V0.363636C16 0.173242 15.8268 1.90909e-05 15.6364 0C10.5348 0 5.42873 0 0.329548 0ZM0.954548 0.727273H15.0455L8 6.44318L0.954548 0.727273ZM0.727276 1.48295L6.43182 6.10227L0.727276 10.6591V1.48295ZM15.2727 1.48295V10.6591L9.56818 6.10227L15.2727 1.48295ZM7.00568 6.56818L7.77273 7.1875C7.9005 7.28978 8.09951 7.28978 8.22727 7.1875L8.99432 6.56818L14.875 11.2727H1.125L7.00568 6.56818Z" fill="white"/>
</svg>
