<svg width="16" height="16" viewBox="0 0 16 16" fill="none" xmlns="http://www.w3.org/2000/svg">
<path d="M15.1999 1.06667H13.3332V0.266667C13.3332 0.1192 13.214 0 13.0665 0H11.1999C11.0524 0 10.9332 0.1192 10.9332 0.266667V1.06667H5.06654V0.266667C5.06654 0.1192 4.94734 0 4.79987 0H2.9332C2.78574 0 2.66654 0.1192 2.66654 0.266667V1.06667H0.79987C0.652403 1.06667 0.533203 1.18587 0.533203 1.33333V4.26667V15.7333C0.533203 15.8808 0.652403 16 0.79987 16H15.1999C15.3473 16 15.4665 15.8808 15.4665 15.7333V4.26667V1.33333C15.4665 1.18587 15.3473 1.06667 15.1999 1.06667ZM11.4665 0.533333H12.7999V1.33333V2.13333H11.4665V1.33333V0.533333ZM3.19987 0.533333H4.5332V1.33333V2.13333H3.19987V1.33333V0.533333ZM1.06654 1.6H2.66654V2.4C2.66654 2.54747 2.78574 2.66667 2.9332 2.66667H4.79987C4.94734 2.66667 5.06654 2.54747 5.06654 2.4V1.6H10.9332V2.4C10.9332 2.54747 11.0524 2.66667 11.1999 2.66667H13.0665C13.214 2.66667 13.3332 2.54747 13.3332 2.4V1.6H14.9332V4H1.06654V1.6ZM1.06654 15.4667V4.53333H14.9332V15.4667H1.06654Z" fill="white"/>
</svg>
