<svg width="19" height="17" viewBox="0 0 19 17" fill="none" xmlns="http://www.w3.org/2000/svg">
<path d="M17.0469 4.63095C17.059 4.79972 17.059 4.96853 17.059 5.13731C17.059 10.2851 13.1409 16.2166 5.97969 16.2166C3.77347 16.2166 1.72399 15.5776 0 14.4685C0.313463 14.5047 0.614828 14.5167 0.940352 14.5167C2.76075 14.5167 4.43654 13.9019 5.77474 12.8531C4.06281 12.8169 2.62816 11.6957 2.13386 10.1525C2.375 10.1887 2.6161 10.2128 2.8693 10.2128C3.2189 10.2128 3.56855 10.1646 3.89404 10.0802C2.10978 9.7185 0.771541 8.15126 0.771541 6.25849V6.21029C1.28992 6.49963 1.89276 6.68046 2.53168 6.70455C1.48282 6.00529 0.795662 4.81178 0.795662 3.46152C0.795662 2.73819 0.98852 2.07512 1.3261 1.49643C3.24299 3.85937 6.12435 5.40249 9.35527 5.5713C9.29501 5.28196 9.25883 4.98059 9.25883 4.67919C9.25883 2.53323 10.9949 0.785156 13.1529 0.785156C14.274 0.785156 15.2867 1.25533 15.998 2.01485C16.8781 1.84608 17.722 1.52055 18.4695 1.0745C18.1801 1.97871 17.5653 2.73822 16.7576 3.22042C17.5412 3.13607 18.3007 2.91902 18.9999 2.61765C18.4696 3.3892 17.8065 4.07635 17.0469 4.63095Z" fill="#E5E5E5"/>
</svg>
