<svg width="19" height="15" viewBox="0 0 19 15" fill="none" xmlns="http://www.w3.org/2000/svg">
<path d="M18.1925 2.2275C17.6771 1.31075 17.1178 1.14213 15.979 1.078C14.8414 1.00081 11.9807 0.96875 9.50237 0.96875C7.01931 0.96875 4.15744 1.00081 3.021 1.07681C1.88456 1.14213 1.32406 1.30956 0.803937 2.2275C0.273125 3.14306 0 4.72006 0 7.49644C0 7.49881 0 7.5 0 7.5C0 7.50238 0 7.50356 0 7.50356V7.50594C0 10.2704 0.273125 11.8593 0.803937 12.7654C1.32406 13.6821 1.88337 13.8484 3.01981 13.9256C4.15744 13.9921 7.01931 14.0312 9.50237 14.0312C11.9807 14.0312 14.8414 13.9921 15.9802 13.9267C17.119 13.8496 17.6783 13.6833 18.1937 12.7666C18.7292 11.8605 19 10.2716 19 7.50712C19 7.50712 19 7.50356 19 7.50119C19 7.50119 19 7.49881 19 7.49763C19 4.72006 18.7292 3.14306 18.1925 2.2275ZM7.125 11.0625V3.9375L13.0625 7.5L7.125 11.0625Z" fill="white"/>
</svg>
